<svg width="32" height="32" viewBox="0 0 32 32" fill="none" xmlns="http://www.w3.org/2000/svg">
<path d="M28.6668 24.6666C28.6668 24.6666 25.3335 19.9999 25.3335 15.9999V10.6666C25.3335 8.19123 24.3502 5.81726 22.5998 4.06692C20.8495 2.31658 18.4755 1.33325 16.0002 1.33325C13.5248 1.33325 11.1508 2.31658 9.4005 4.06692C7.65016 5.81726 6.66683 8.19123 6.66683 10.6666V15.9999C6.66683 19.9999 3.3335 24.6666 3.3335 24.6666H28.6668Z" stroke="#393E46" stroke-width="2" stroke-miterlimit="10" stroke-linecap="round" stroke-linejoin="round"/>
<path d="M19.3337 27.3333C19.3337 28.2173 18.9825 29.0652 18.3573 29.6903C17.7322 30.3154 16.8844 30.6666 16.0003 30.6666C15.1163 30.6666 14.2684 30.3154 13.6433 29.6903C13.0182 29.0652 12.667 28.2173 12.667 27.3333" stroke="#393E46" stroke-width="2" stroke-miterlimit="10" stroke-linecap="round" stroke-linejoin="round"/>
</svg>
