<svg width="47" height="46" viewBox="0 0 47 46" fill="none" xmlns="http://www.w3.org/2000/svg">
<path d="M23.8098 29.7083C27.5147 29.7083 30.5181 26.7049 30.5181 23C30.5181 19.295 27.5147 16.2916 23.8098 16.2916C20.1049 16.2916 17.1014 19.295 17.1014 23C17.1014 26.7049 20.1049 29.7083 23.8098 29.7083Z" stroke="#00ADB5" stroke-width="2" stroke-miterlimit="10" stroke-linecap="round" stroke-linejoin="round"/>
<path d="M44.8931 25.875V20.125L38.7598 19.6132C38.3758 17.9172 37.7042 16.2994 36.7741 14.8302L40.756 10.1248L36.685 6.05854L31.9796 10.0404C30.5107 9.10837 28.8929 8.43513 27.1965 8.04996L26.6848 1.91663H20.9348L20.423 8.04996C18.727 8.43389 17.1093 9.10549 15.64 10.0356L10.9346 6.05375L6.86836 10.1248L10.8502 14.8302C9.91818 16.299 9.24494 17.9168 8.85977 19.6132L2.72644 20.125V25.875L8.85977 26.3867C9.24371 28.0827 9.91531 29.7005 10.8454 31.1698L6.86357 35.8752L10.9298 39.9414L15.6352 35.9595C17.1055 36.8921 18.7249 37.5653 20.423 37.95L20.9348 44.0833H26.6848L27.1965 37.9452C28.8926 37.5612 30.5103 36.8896 31.9796 35.9595L36.685 39.9414L40.7512 35.8752L36.7693 31.1698C37.7014 29.7009 38.3746 28.0831 38.7598 26.3867L44.8931 25.875Z" stroke="#00ADB5" stroke-width="2" stroke-miterlimit="10" stroke-linecap="round" stroke-linejoin="round"/>
</svg>
