<svg width="48" height="48" viewBox="0 0 48 48" fill="none" xmlns="http://www.w3.org/2000/svg">
<path d="M46.083 19L40.4 18.529C40.0246 17.1455 39.4731 15.816 38.759 14.573L42.45 10.211C42.6121 10.0196 42.6962 9.7742 42.6859 9.52358C42.6755 9.27297 42.5713 9.03541 42.394 8.85801L38.142 4.61501C37.9646 4.43769 37.727 4.33351 37.4764 4.32314C37.2258 4.31277 36.9805 4.39696 36.789 4.55901L32.428 8.24901C31.1846 7.53314 29.8548 6.97899 28.471 6.60001L28 0.917006C27.9791 0.666429 27.8646 0.432909 27.6793 0.262968C27.494 0.0930272 27.2514 -0.000861516 27 5.95796e-06H21C20.7486 -0.000861516 20.506 0.0930272 20.3207 0.262968C20.1354 0.432909 20.0209 0.666429 20 0.917006L19.529 6.60001C18.1455 6.97543 16.816 7.52694 15.573 8.24101L11.211 4.55401C11.0196 4.39195 10.7742 4.30777 10.5236 4.31814C10.273 4.32851 10.0354 4.43269 9.85801 4.61001L5.61501 8.85801C5.43769 9.03541 5.33351 9.27297 5.32314 9.52358C5.31277 9.7742 5.39696 10.0196 5.55901 10.211L9.24901 14.572C8.53314 15.8154 7.97899 17.1452 7.60001 18.529L1.91701 19C1.66643 19.0209 1.43291 19.1354 1.26297 19.3207C1.09303 19.506 0.999138 19.7486 1.00001 20V26C0.999138 26.2514 1.09303 26.494 1.26297 26.6793C1.43291 26.8646 1.66643 26.9791 1.91701 27L7.60401 27.475C7.97943 28.8585 8.53094 30.188 9.24501 31.431L5.55401 35.789C5.39195 35.9805 5.30777 36.2258 5.31814 36.4764C5.32851 36.727 5.43269 36.9646 5.61001 37.142L9.85301 41.385C10.0304 41.562 10.2677 41.666 10.5181 41.6764C10.7685 41.6868 11.0136 41.6028 11.205 41.441L15.567 37.751C16.8118 38.4676 18.1433 39.0218 19.529 39.4L20 45.083C20.0209 45.3336 20.1354 45.5671 20.3207 45.737C20.506 45.907 20.7486 46.0009 21 46H27C27.2514 46.0009 27.494 45.907 27.6793 45.737C27.8646 45.5671 27.9791 45.3336 28 45.083L28.476 39.392C29.8589 39.0153 31.188 38.4635 32.431 37.75L36.793 41.441C36.9845 41.6031 37.2298 41.6872 37.4804 41.6769C37.731 41.6665 37.9686 41.5623 38.146 41.385L42.389 37.142C42.5663 36.9646 42.6705 36.727 42.6809 36.4764C42.6912 36.2258 42.6071 35.9805 42.445 35.789L38.755 31.428C39.4695 30.1844 40.0223 28.8546 40.4 27.471L46.083 27C46.3336 26.9791 46.5671 26.8646 46.737 26.6793C46.907 26.494 47.0009 26.2514 47 26V20C47.0009 19.7486 46.907 19.506 46.737 19.3207C46.5671 19.1354 46.3336 19.0209 46.083 19ZM24 30C22.6155 30 21.2622 29.5895 20.111 28.8203C18.9599 28.0511 18.0627 26.9579 17.5328 25.6788C17.003 24.3997 16.8644 22.9922 17.1345 21.6344C17.4046 20.2765 18.0713 19.0292 19.0503 18.0503C20.0292 17.0713 21.2765 16.4046 22.6344 16.1345C23.9922 15.8644 25.3997 16.003 26.6788 16.5328C27.9579 17.0627 29.0511 17.9599 29.8203 19.111C30.5895 20.2622 31 21.6155 31 23C31 24.8565 30.2625 26.637 28.9498 27.9498C27.637 29.2625 25.8565 30 24 30Z" fill="#00ADB5"/>
</svg>
